<svg width="24" height="24" viewBox="0 0 24 24" fill="none" xmlns="http://www.w3.org/2000/svg">
<path fill-rule="evenodd" clip-rule="evenodd" d="M6 4H13C14.66 4 16 5.34 16 7V8H14V6L5 5.98V13H10V18L8 17.97L6 20H5V19L6 18C4.34 18 3 16.66 3 15V7C3 5.34 4.34 4 6 4ZM7 15C7 14.45 6.55 14 6 14C5.45 14 5 14.45 5 15C5 15.55 5.45 16 6 16C6.55 16 7 15.55 7 15Z" fill="#757575"/>
<path fill-rule="evenodd" clip-rule="evenodd" d="M11.6339 19.026C11.2472 18.686 11 18.1977 11 17.6537V11.4725C11 9.30906 13.2695 9 16.0714 9C18.8734 9 21.1429 9.30906 21.1429 11.4725V17.6537C21.1429 18.1977 20.8956 18.686 20.5089 19.026V20.1262C20.5089 20.4662 20.2237 20.7444 19.875 20.7444H19.2411C18.8924 20.7444 18.6071 20.4662 18.6071 20.1262V19.5081H13.5357V20.1262C13.5357 20.4662 13.2504 20.7444 12.9018 20.7444H12.2679C11.9192 20.7444 11.6339 20.4662 11.6339 20.1262V19.026ZM12.2679 17.3447C12.2679 17.8577 12.6926 18.2719 13.2188 18.2719C13.7449 18.2719 14.1696 17.8577 14.1696 17.3447C14.1696 16.8316 13.7449 16.4175 13.2188 16.4175C12.6926 16.4175 12.2679 16.8316 12.2679 17.3447ZM18.9241 18.2719C18.3979 18.2719 17.9732 17.8577 17.9732 17.3447C17.9732 16.8316 18.3979 16.4175 18.9241 16.4175C19.4503 16.4175 19.875 16.8316 19.875 17.3447C19.875 17.8577 19.4503 18.2719 18.9241 18.2719ZM12.2679 14.5631H19.875V11.4725H12.2679V14.5631Z" fill="#757575"/>
</svg>
